<svg width="165" height="40" viewBox="0 0 165 40" fill="none" xmlns="http://www.w3.org/2000/svg">
<g id="original" clip-path="url(#clip0_16383_44863)">
<g id="Group">
<path id="Vector" d="M61.6714 20.4742C61.7433 17.2627 62.7738 14.6265 65.3622 12.7571C66.6564 11.8224 68.1423 11.391 69.724 11.2952C71.2579 11.1993 72.7677 11.3191 74.2057 11.9183C76.9139 13.0687 78.5436 15.1297 79.1667 17.9578C79.8617 21.1692 79.2865 24.141 77.0816 26.6575C75.9792 27.9037 74.5412 28.6227 72.9115 28.9822C70.9942 29.3896 69.1009 29.3417 67.2555 28.7186C64.092 27.6161 62.4383 25.2674 61.8631 22.0799C61.7193 21.4808 61.7193 20.9056 61.6714 20.4742ZM64.8349 20.2106C64.8829 20.6899 64.9068 21.1692 65.0027 21.6485C65.4341 23.7576 66.5126 25.3633 68.6935 25.9625C69.5083 26.1782 70.3951 26.2501 71.2579 26.2021C73.1512 26.0823 74.6131 25.1716 75.5238 23.446C76.123 22.2956 76.3387 21.0734 76.2668 19.8031C76.123 17.2388 74.7569 14.5785 71.4256 14.1711C69.1249 13.8835 66.896 14.6504 65.6737 16.9272C65.0746 17.9817 64.8349 19.0602 64.8349 20.2106Z" fill="white"/>
<path id="Vector_2" d="M101.982 18.2695C101.982 15.9687 101.982 13.8357 101.982 11.6309C102.965 11.6309 103.924 11.6309 104.93 11.6309C104.93 17.3348 104.93 23.0388 104.93 28.7667C104.043 28.7667 103.133 28.7667 102.222 28.7667C102.15 28.2634 102.078 27.7601 102.006 27.2808C101.91 27.3047 101.886 27.3287 101.863 27.3287C100.161 30.0848 94.3371 29.6295 92.5636 26.0585C91.4612 23.8296 91.4612 21.5289 92.5636 19.324C93.4504 17.5505 95.0322 16.6877 96.9495 16.496C97.7403 16.4241 98.5792 16.496 99.37 16.6398C100.377 16.8315 101.239 17.3588 101.982 18.2695ZM101.791 22.7512C101.791 20.714 100.233 19.1562 98.2197 19.1562C96.2305 19.1562 94.7685 20.6661 94.7685 22.7032C94.7685 24.8123 96.2305 26.3221 98.2676 26.3221C100.281 26.3461 101.791 24.8123 101.791 22.7512Z" fill="white"/>
<path id="Vector_3" d="M117.465 25.435C117.992 25.9623 118.592 26.5614 119.239 27.2085C118.616 27.8556 117.873 28.311 117.034 28.5986C114.781 29.3894 112.528 29.4134 110.371 28.287C108.574 27.3523 107.711 25.7466 107.423 23.7814C107.232 22.3434 107.375 20.9534 108.023 19.6592C109.029 17.6221 110.755 16.5675 112.96 16.3998C113.942 16.3279 114.973 16.3758 115.931 16.6155C118.256 17.1907 119.742 19.084 119.934 21.5046C119.982 22.1037 119.982 22.7029 120.006 23.2781C120.03 23.6855 119.862 23.8293 119.43 23.8293C116.65 23.8053 113.87 23.8293 111.09 23.8293C110.898 23.8293 110.731 23.8293 110.467 23.8293C110.563 24.716 110.994 25.3392 111.665 25.7945C112.792 26.5375 114.062 26.6094 115.332 26.2738C116.051 26.0821 116.722 25.7226 117.465 25.435ZM110.515 21.3128C112.72 21.3128 114.901 21.3128 117.058 21.3128C117.034 20.5459 116.626 19.8749 115.979 19.4674C114.757 18.7005 112.72 18.7964 111.593 19.6831C111.042 20.1145 110.683 20.6418 110.515 21.3128Z" fill="white"/>
<path id="Vector_4" d="M146.296 16.8546C146.296 17.7413 146.296 18.5562 146.296 19.4429C145.912 19.4429 145.529 19.4429 145.145 19.4429C144.498 19.4429 143.851 19.4669 143.204 19.4429C142.845 19.419 142.725 19.5388 142.725 19.9222C142.749 22.7023 142.725 25.4824 142.725 28.2385C142.725 28.4063 142.725 28.574 142.725 28.7658C141.718 28.7658 140.76 28.7658 139.753 28.7658C139.753 28.5501 139.753 28.3583 139.753 28.1666C139.753 25.4345 139.753 22.7023 139.753 19.9941C139.753 19.5627 139.705 19.4669 139.25 19.4669C138.699 19.4669 138.099 19.4429 137.524 19.4429C137.524 18.5801 137.524 17.7653 137.524 16.8546C138.075 16.8546 139.202 16.8546 139.777 16.8546C139.777 16.8546 139.777 16.7347 139.753 16.3273C139.705 15.105 139.921 13.9307 140.688 12.9241C141.814 11.4861 143.899 10.911 145.912 11.5101C146.464 11.6779 146.967 11.9415 147.542 12.1812C147.159 12.9721 146.799 13.691 146.44 14.434C145.457 13.9067 144.45 13.4753 143.42 14.2183C142.821 14.6497 142.605 15.6323 142.773 16.8546C143.947 16.8546 145.121 16.8546 146.296 16.8546Z" fill="white"/>
<path id="Vector_5" d="M164.343 18.1254C163.695 18.7965 163.096 19.4196 162.473 20.0906C161.563 19.3477 160.532 18.9882 159.358 19.2039C158.495 19.3477 157.776 19.7551 157.225 20.4741C156.17 21.8402 156.266 24.093 157.392 25.3153C158.423 26.4417 160.82 26.921 162.665 25.3872C162.977 25.6987 163.312 25.9863 163.648 26.3218C163.959 26.6334 164.295 26.9689 164.63 27.3284C163.719 28.2391 162.641 28.8623 161.347 29.1019C159.621 29.3895 157.968 29.2218 156.434 28.359C154.564 27.3045 153.726 25.6029 153.558 23.5178C153.462 22.2955 153.558 21.0733 154.061 19.9229C155.068 17.6461 156.937 16.6155 159.334 16.4238C161.035 16.28 162.617 16.6155 163.935 17.7899C164.055 17.8378 164.175 17.9576 164.343 18.1254Z" fill="white"/>
<path id="Vector_6" d="M89.8312 20.1142C89.0163 19.3473 88.0577 19.2515 87.099 19.3473C85.5891 19.5151 84.6305 20.6655 84.6065 22.3191C84.5826 24.2844 84.6065 26.2496 84.6065 28.1909C84.6065 28.3586 84.6065 28.5264 84.6065 28.7421C83.6239 28.7421 82.6413 28.7421 81.6587 28.7421C81.6587 24.7158 81.6587 20.7134 81.6587 16.6871C82.5454 16.6871 83.4562 16.6871 84.3669 16.6871C84.4388 17.0945 84.5346 17.5259 84.6305 18.0771C85.5172 16.6871 86.7635 16.3036 88.2254 16.3516C89.3279 16.3995 90.3105 16.7111 91.1972 17.478C90.7419 18.3647 90.2865 19.2035 89.8312 20.1142Z" fill="white"/>
<path id="Vector_7" d="M122.354 16.6881C123.217 16.6881 124.032 16.6881 124.87 16.712C124.966 16.712 125.086 16.9038 125.11 17.0236C125.182 17.3112 125.23 17.6227 125.278 18.0062C125.398 17.9343 125.446 17.8864 125.494 17.8384C126.428 16.5203 127.77 16.2806 129.256 16.4244C130.071 16.4963 130.838 16.7839 131.533 17.2633C131.773 17.431 131.869 17.5988 131.701 17.8864C131.293 18.6054 130.934 19.3483 130.503 20.1392C129.807 19.54 129.017 19.3483 128.13 19.3723C126.476 19.4202 125.302 20.5466 125.302 22.2003C125.278 24.2134 125.302 26.2506 125.302 28.2637C125.302 28.4315 125.302 28.5993 125.302 28.815C124.319 28.815 123.337 28.815 122.354 28.815C122.354 24.7647 122.354 20.7623 122.354 16.6881Z" fill="white"/>
<path id="Vector_8" d="M133.091 28.8149C133.091 24.7407 133.091 20.7143 133.091 16.6641C134.074 16.6641 135.008 16.6641 135.991 16.6641C136.015 16.8558 136.039 17.0236 136.039 17.2153C136.039 20.9061 136.039 25.1481 136.039 28.8389H133.091V28.8149Z" fill="white"/>
<path id="Vector_9" d="M148.549 28.8149C148.549 24.7407 148.549 20.7143 148.549 16.6641C149.507 16.6641 150.442 16.6641 151.449 16.6641C151.473 16.8318 151.497 17.0236 151.497 17.1913C151.497 20.8821 151.497 25.1241 151.497 28.8149H148.549Z" fill="white"/>
<path id="Vector_10" d="M151.712 13.2373C151.712 14.2678 151.017 14.9868 149.987 14.9868C148.956 14.9868 148.237 14.2918 148.237 13.2612C148.237 12.2307 148.956 11.5117 149.987 11.5117C151.017 11.5117 151.712 12.2067 151.712 13.2373Z" fill="white"/>
<path id="Vector_11" d="M132.78 13.2378C132.78 12.2073 133.475 11.4883 134.529 11.4883C135.56 11.4883 136.279 12.2073 136.279 13.2378C136.279 14.2444 135.536 14.9873 134.505 14.9873C133.499 14.9873 132.78 14.2684 132.78 13.2378Z" fill="white"/>
</g>
<g id="Group_2">
<path id="Vector_12" d="M33.6317 5.92594C33.1284 4.84746 33.0325 3.79295 33.4879 2.7624C33.7755 2.09135 34.2548 1.56409 34.9019 1.2046C36.1242 0.485615 37.7299 0.629412 38.8084 1.54013C40.0786 2.6186 40.3183 3.98468 39.5513 6.06974C39.9588 6.1656 40.3422 6.2375 40.7496 6.3094C47.556 7.81927 52.7088 13.1398 53.8831 19.9701C54.4823 23.4212 54.0269 26.7526 52.565 29.9401C52.3732 30.3475 52.1576 30.5392 51.6782 30.5152C49.5452 30.4913 47.4362 30.4913 45.3032 30.4913C45.1355 30.4913 44.9917 30.4913 44.7041 30.4913C47.2205 27.855 48.323 24.8113 47.8436 21.3122C47.4602 18.5322 46.142 16.2554 43.9611 14.4819C39.7431 11.0547 33.8234 11.2944 29.7492 15.105C26.0823 18.5082 24.7163 25.4104 29.6293 30.4913C29.4376 30.4913 29.2698 30.5152 29.1261 30.5152C20.8338 30.5152 12.5654 30.5152 4.27312 30.5152C2.71531 30.5152 1.51701 29.7244 1.08561 28.3822C0.438527 26.3691 1.9484 24.332 4.12932 24.332C8.85066 24.332 13.548 24.332 18.2694 24.332C18.5809 24.332 18.9165 24.332 19.2041 24.2361C19.8991 24.0444 20.3544 23.3254 20.2586 22.6304C20.1627 21.9114 19.5875 21.3602 18.8446 21.3122C18.509 21.2883 18.1735 21.3122 17.838 21.3122C13.2604 21.3122 8.68289 21.3122 4.10535 21.3122C2.37979 21.3122 1.01372 20.09 0.941817 18.4603C0.845952 16.7107 2.0203 15.3686 3.76983 15.1769C4.08139 15.1529 4.39295 15.129 4.70451 15.129C10.1688 15.129 15.6331 15.129 21.0734 15.129C22.2478 15.129 22.9907 14.1463 22.6072 13.0918C22.3676 12.4687 21.8164 12.0852 21.0494 12.0852C19.5156 12.0852 17.9578 12.0852 16.424 12.0852C14.7943 12.0852 13.4761 10.9828 13.2844 9.47293C13.0927 7.7953 14.0753 6.40526 15.729 6.0218C15.9926 5.9499 16.2802 5.9499 16.5678 5.9499C22.0081 5.9499 27.4484 5.9499 32.8887 5.9499C33.1284 5.92594 33.3201 5.92594 33.6317 5.92594Z" fill="white"/>
<path id="Vector_13" d="M50.2402 33.5591C49.8328 34.0145 49.5212 34.374 49.1857 34.7095C45.8064 38.0408 41.7322 39.7184 36.9629 39.7184C30.1805 39.7184 23.3981 39.7184 16.5917 39.7184C14.8661 39.7184 13.7157 38.8796 13.3323 37.3697C12.8529 35.5004 14.219 33.655 16.1363 33.5591C16.352 33.5591 16.5677 33.5352 16.7834 33.5352C27.688 33.5352 38.5926 33.5352 49.4972 33.5352C49.7129 33.5591 49.9047 33.5591 50.2402 33.5591Z" fill="white"/>
</g>
</g>
<defs>
<clipPath id="clip0_16383_44863">
<rect width="164.049" height="38.969" fill="white" transform="translate(0.75 0.75)"/>
</clipPath>
</defs>
</svg>
